<svg id="Icons" height="512" viewBox="0 0 74 74" width="512" xmlns="http://www.w3.org/2000/svg"><path d="m33.589 31.314-2-.089.366-8.225h-20.955v-2h22a1 1 0 0 1 1 1.044z"/><path d="m29.09 68h-22.18a2.978 2.978 0 0 1 -2.989-2.873l-1.921-43.083a1 1 0 0 1 1-1.044h4v2h-2.954l1.873 42.045a.986.986 0 0 0 .991.955h22.18z"/><path d="m63 68h-7v-2h7a5.006 5.006 0 0 0 5-5v-2a1 1 0 0 0 -1-1h-46a1 1 0 0 0 -1 1v2a5.006 5.006 0 0 0 5 5h27v2h-27a7.008 7.008 0 0 1 -7-7v-2a3 3 0 0 1 3-3h46a3 3 0 0 1 3 3v2a7.008 7.008 0 0 1 -7 7z"/><path d="m67 50h-46a3 3 0 0 1 -3-3v-2c0-11.155 13.478-16.235 26-16.235s26 5.08 26 16.235v2a3 3 0 0 1 -3 3zm-23-19.235c-11.56 0-24 4.455-24 14.235v2a1 1 0 0 0 1 1h46a1 1 0 0 0 1-1v-2c0-5.454-3.964-8.746-7.289-10.547-4.391-2.378-10.325-3.688-16.711-3.688z"/><path d="m67 58h-46a5 5 0 0 1 0-10h46a5 5 0 0 1 0 10zm-46-8a3 3 0 0 0 0 6h46a3 3 0 0 0 0-6z"/><path d="m17 22h-2v-10a1 1 0 0 1 .553-.895l10-5 .895 1.789-9.448 4.724z"/><path d="m57 37h1.999v5h-1.999z" transform="matrix(.6 -.8 .8 .6 -8.4 62.2)"/><path d="m31.298 37h6.403v2h-6.403z" transform="matrix(.781 -.625 .625 .781 -16.181 29.894)"/><path d="m40.875 40.257h2.001v6.486h-2.001z" transform="matrix(.463 -.887 .887 .463 -16.061 60.504)"/><path d="m47 35.215h2.001v5.882h-2.001z" transform="matrix(.733 -.68 .68 .733 -13.14 42.823)"/><path d="m26.625 43.5h5.375v2h-5.375z"/></svg>