<svg id="Layer_1" height="512" viewBox="0 0 128 128" width="512" xmlns="http://www.w3.org/2000/svg" data-name="Layer 1"><path d="m121.5 4.75h-101a1.75 1.75 0 0 0 -1.75 1.75v40.75h-12.25a1.75 1.75 0 0 0 -1.75 1.75v55.84a1.75 1.75 0 0 0 1.75 1.75h35.568l26.224 16.394a1.751 1.751 0 0 0 2.659-1.746l-2.216-14.648h29.385a1.75 1.75 0 0 0 1.75-1.75v-35.029h21.63a1.751 1.751 0 0 0 1.75-1.75v-61.561a1.75 1.75 0 0 0 -1.75-1.75zm-25.13 98.34h-29.67a1.75 1.75 0 0 0 -1.73 2.012l1.951 12.898-23.421-14.645a1.76 1.76 0 0 0 -.928-.265h-34.322v-52.34h10.5v17.311a1.751 1.751 0 0 0 1.75 1.75h32.607l-2.475 16.349a1.751 1.751 0 0 0 2.659 1.746l28.95-18.095h14.129zm23.38-36.779h-38.011a1.749 1.749 0 0 0 -.928.265l-26.148 16.345 2.209-14.6a1.751 1.751 0 0 0 -1.73-2.011h-32.892v-58.06h97.5z"/></svg>